<?xml version="1.0" encoding="utf-8"?>
<!-- Generator: Adobe Illustrator 15.1.0, SVG Export Plug-In . SVG Version: 6.00 Build 0)  -->
<!DOCTYPE svg PUBLIC "-//W3C//DTD SVG 1.1//EN" "http://www.w3.org/Graphics/SVG/1.1/DTD/svg11.dtd">
<svg version="1.1" id="Layer_1" xmlns="http://www.w3.org/2000/svg" xmlns:xlink="http://www.w3.org/1999/xlink" x="0px" y="0px"
	 width="29px" height="17.25px" viewBox="0 0 29 17.25" enable-background="new 0 0 29 17.25" xml:space="preserve">
<path d="M3.248,8.968C3.299,9.09,3.373,9.2,3.465,9.291l6.273,6.273c0.39,0.39,1.023,0.39,1.414,0c0.39-0.391,0.39-1.024,0-1.414
	L6.584,9.584H26.27c0.553,0,1-0.448,1-1c0-0.553-0.447-1-1-1H6.584l4.568-4.568c0.39-0.392,0.39-1.024,0-1.414
	c-0.196-0.196-0.451-0.293-0.707-0.293c-0.256,0-0.512,0.097-0.707,0.293L3.465,7.875C3.373,7.967,3.299,8.076,3.248,8.198
	C3.198,8.319,3.17,8.449,3.17,8.583C3.17,8.717,3.198,8.847,3.248,8.968"/>
</svg>
