<?xml version="1.0" encoding="utf-8"?>
<!-- Generator: Adobe Illustrator 15.1.0, SVG Export Plug-In . SVG Version: 6.00 Build 0)  -->
<!DOCTYPE svg PUBLIC "-//W3C//DTD SVG 1.1//EN" "http://www.w3.org/Graphics/SVG/1.1/DTD/svg11.dtd">
<svg version="1.1" id="Layer_1" xmlns="http://www.w3.org/2000/svg" xmlns:xlink="http://www.w3.org/1999/xlink" x="0px" y="0px"
	 width="29px" height="17.25px" viewBox="0 0 29 17.25" enable-background="new 0 0 29 17.25" xml:space="preserve">
<path d="M26.621,8.198c-0.051-0.122-0.125-0.232-0.217-0.323l-6.273-6.273c-0.39-0.39-1.023-0.39-1.414,0
	c-0.39,0.391-0.39,1.024,0,1.414l4.568,4.567H3.6c-0.553,0-1,0.447-1,1c0,0.553,0.447,1,1,1h19.685l-4.568,4.567
	c-0.39,0.392-0.39,1.024,0,1.414c0.196,0.196,0.451,0.293,0.707,0.293s0.512-0.097,0.707-0.293l6.273-6.273
	c0.092-0.092,0.166-0.201,0.217-0.323c0.05-0.121,0.078-0.251,0.078-0.385C26.699,8.449,26.671,8.319,26.621,8.198"/>
</svg>
